<svg xmlns="http://www.w3.org/2000/svg" viewBox="0 0 128 128" fill="none" aria-hidden="true">
  <defs>
    <linearGradient id="finclaw-gold" x1="24" y1="72" x2="98" y2="108" gradientUnits="userSpaceOnUse">
      <stop stop-color="#e8b84a"/>
      <stop offset="0.45" stop-color="#c9a84c"/>
      <stop offset="1" stop-color="#8b6914"/>
    </linearGradient>
    <linearGradient id="finclaw-teal" x1="20" y1="36" x2="108" y2="20" gradientUnits="userSpaceOnUse">
      <stop stop-color="#2dd4bf"/>
      <stop offset="1" stop-color="#0f766e"/>
    </linearGradient>
  </defs>
  <!-- 走势线固定在上半区，避免与下方螯形重叠导致小尺寸下图标发糊、像“穿模” -->
  <path
    d="M 22 36 L 46 22 L 66 28 L 86 14 L 106 20"
    stroke="url(#finclaw-teal)"
    stroke-width="5"
    stroke-linecap="round"
    stroke-linejoin="round"
  />
  <circle cx="46" cy="22" r="3.5" fill="#14b8a6"/>
  <circle cx="66" cy="28" r="3.5" fill="#14b8a6"/>
  <circle cx="86" cy="14" r="3.5" fill="#5eead4"/>
  <circle cx="106" cy="20" r="3.5" fill="#99f6e4"/>
  <!-- 螯形独占下半区 -->
  <path
    d="M 22 102 C 18 86 22 72 36 64 C 44 60 52 58 58 62 C 62 54 74 50 84 56 C 96 62 100 76 94 88 C 88 98 76 104 64 106 C 54 112 40 114 28 108 C 24 106 22 104 22 102 Z"
    fill="url(#finclaw-gold)"
  />
  <ellipse cx="50" cy="82" rx="11" ry="9" fill="#1c1917" opacity="0.18"/>
  <path d="M 74 58 L 98 46 L 102 52 L 78 64 Z" fill="#d4a84b"/>
  <path d="M 78 62 L 100 54 L 96 60 L 80 70 Z" fill="#a67c2a"/>
</svg>
